<svg xmlns="http://www.w3.org/2000/svg" version="1.1" xmlns:xlink="http://www.w3.org/1999/xlink" width="1000" height="1000"><g clip-path="url(#SvgjsClipPath1058)"><rect width="1000" height="1000" fill="#ffffff"></rect><g transform="matrix(1.5625,0,0,1.5625,0,0)"><svg xmlns="http://www.w3.org/2000/svg" version="1.1" xmlns:xlink="http://www.w3.org/1999/xlink" width="640" height="640"><svg xmlns="http://www.w3.org/2000/svg" viewBox="0 0 640 640"><!--!Font Awesome Free 7.1.0 by @fontawesome - https://fontawesome.com License - https://fontawesome.com/license/free Copyright 2025 Fonticons, Inc.--><path d="M480 96C515.3 96 544 124.7 544 160L544 480C544 515.3 515.3 544 480 544L160 544C124.7 544 96 515.3 96 480L96 160C96 124.7 124.7 96 160 96L480 96zM438 209.7C427.3 201.9 412.3 204.3 404.5 215L285.1 379.2L233 327.1C223.6 317.7 208.4 317.7 199.1 327.1C189.8 336.5 189.7 351.7 199.1 361L271.1 433C276.1 438 283 440.5 289.9 440C296.8 439.5 303.3 435.9 307.4 430.2L443.3 243.2C451.1 232.5 448.7 217.5 438 209.7z"></path></svg></svg></g></g><defs><clipPath id="SvgjsClipPath1058"><rect width="1000" height="1000" x="0" y="0" rx="0" ry="0"></rect></clipPath></defs></svg>